<svg xmlns="http://www.w3.org/2000/svg" viewBox="0 0 760 560" role="img" aria-labelledby="title desc">
  <title id="title">Waypoint resource mockups</title>
  <desc id="desc">Four branded resource preview cards for the self-check, framework guide, gala calendar, and board role guide.</desc>
  <defs><filter id="shadow" x="-20%" y="-20%" width="140%" height="140%"><feDropShadow dx="0" dy="14" stdDeviation="14" flood-color="#0c223c" flood-opacity="0.12"/></filter></defs>
  <rect width="760" height="560" rx="38" fill="#f7f0e4"/>
  <g filter="url(#shadow)" font-family="Inter Tight, Arial, sans-serif">
    <rect x="70" y="72" width="280" height="185" rx="24" fill="#fffaf1" stroke="#e8ddca"/>
    <rect x="94" y="100" width="82" height="12" rx="6" fill="#314d2d"/>
    <text x="94" y="148" font-size="22" font-weight="900" fill="#0c223c">Self-Check</text>
    <circle cx="280" cy="166" r="46" fill="#c99a45"/>
    <path d="M258 166l15 15 31-38" fill="none" stroke="#0c223c" stroke-width="8" stroke-linecap="round" stroke-linejoin="round"/>
    <path d="M94 198h98M94 224h156" stroke="#e8ddca" stroke-width="8" stroke-linecap="round"/>
    <rect x="410" y="72" width="280" height="185" rx="24" fill="#ffffff" stroke="#e8ddca"/>
    <rect x="434" y="100" width="96" height="12" rx="6" fill="#17365d"/>
    <text x="434" y="148" font-size="22" font-weight="900" fill="#0c223c">Framework Guide</text>
    <path d="M438 190h180M438 218h132" stroke="#e8ddca" stroke-width="8" stroke-linecap="round"/>
    <rect x="610" y="112" width="40" height="86" rx="8" fill="#f7f0e4" stroke="#e8ddca"/>
    <rect x="70" y="304" width="280" height="185" rx="24" fill="#ffffff" stroke="#e8ddca"/>
    <rect x="94" y="332" width="96" height="12" rx="6" fill="#c99a45"/>
    <text x="94" y="380" font-size="22" font-weight="900" fill="#0c223c">Post-Gala Calendar</text>
    <g fill="#f7f0e4" stroke="#e8ddca"><rect x="94" y="414" width="36" height="28" rx="6"/><rect x="138" y="414" width="36" height="28" rx="6"/><rect x="182" y="414" width="36" height="28" rx="6"/><rect x="226" y="414" width="36" height="28" rx="6"/><rect x="270" y="414" width="36" height="28" rx="6"/></g>
    <circle cx="154" cy="428" r="5" fill="#314d2d"/><circle cx="242" cy="428" r="5" fill="#c99a45"/>
    <rect x="410" y="304" width="280" height="185" rx="24" fill="#0c223c"/>
    <rect x="434" y="332" width="96" height="12" rx="6" fill="#e1bd75"/>
    <text x="434" y="380" font-size="22" font-weight="900" fill="#fffaf1">Board Role Guide</text>
    <path d="M438 420h92M558 420h72M438 450h92M558 450h72" stroke="#e8ddca" stroke-opacity=".55" stroke-width="7" stroke-linecap="round"/>
    <circle cx="640" cy="420" r="8" fill="#c99a45"/><circle cx="640" cy="450" r="8" fill="#314d2d"/>
  </g>
</svg>
